<?xml version="1.0" encoding="utf-8"?>
<!-- Generator: Adobe Illustrator 23.1.1, SVG Export Plug-In . SVG Version: 6.00 Build 0)  -->
<svg version="1.1" id="Layer_1" xmlns="http://www.w3.org/2000/svg" xmlns:xlink="http://www.w3.org/1999/xlink" x="0px" y="0px"
	 viewBox="0 0 48 48" style="enable-background:new 0 0 48 48;" xml:space="preserve">
<style type="text/css">
	.st0{fill:#1A1A1A;}
</style>
<path class="st0" d="M24,0C10.7,0,0,10.7,0,24s10.7,24,24,24s24-10.7,24-24S37.3,0,24,0z M36,25.8L36,25.8l-9.4,6.6
	c-1.3,0.9-1.5-0.4-1.5-0.4v-0.3c0,0,0-1.5,1.3-2.4l1.3-0.9l0,0l1.6-1.1l0,0l2.8-2c1.2-0.8,0.3-1.7,0.1-1.9l0,0l0,0l-3.4-2.8
	c-0.9-0.7-1,0.2-1,0.2l0,0c-0.2,0.6-0.7,1.5-2.3,1.5h-0.3h-9.9c-0.5,0-1.3,0.2-1.3,1.4v0.5c0.1,0.4,0.3,1.1,1.8,1.1h7.9
	c0.5,0,1.6,0.2,1.6,1.2v0.1c0,0,0.1,1.3-1.7,1.3H14c-2.4,0-2.8-1.5-2.8-2.1v-0.5v-3v-0.6c0-2,1.9-1.9,1.9-1.9h0.8h8.9
	c1.8,0,2.2-0.9,2.3-1.5v-1.5c0,0,0-2.6,2-0.9l8.9,7.3C36,23.1,37.8,24.6,36,25.8z"/>
</svg>
