<?xml version="1.0" encoding="utf-8"?>
<!-- Generator: Adobe Illustrator 23.1.1, SVG Export Plug-In . SVG Version: 6.00 Build 0)  -->
<svg version="1.1" id="Layer_1" xmlns:sketch="http://www.bohemiancoding.com/sketch/ns"
	 xmlns="http://www.w3.org/2000/svg" xmlns:xlink="http://www.w3.org/1999/xlink" x="0px" y="0px" viewBox="0 0 20 20"
	 style="enable-background:new 0 0 20 20;" xml:space="preserve">
<style type="text/css">
	.st0{fill:#1A1A1A;}
</style>
<title></title>
<desc></desc>
<g id="layer1" transform="translate(0,-952.36218)">
	<path id="path7266" class="st0" d="M9.7,952.4c-5.4,0.2-9.7,4.6-9.7,10c0,5.5,4.5,10,10,10s10-4.5,10-10c0-5.5-4.5-10-10-10
		C9.9,952.4,9.8,952.4,9.7,952.4z M10,957.4c1.4,0,2.6,0.5,3.5,1.4l1.5-1.4v4h-0.1h-1.6H11l1.4-1.5c-0.6-0.6-1.5-1-2.4-1
		c-1.5,0-2.8,1.1-3.3,2.5H5.1C5.6,959.1,7.6,957.4,10,957.4L10,957.4z M5,963.4L5,963.4h1.7H9l-1.4,1.4c0.6,0.6,1.5,1,2.4,1
		c1.5,0,2.8-1,3.3-2.4H15c-0.5,2.2-2.5,4-4.9,4c-1.4,0-2.6-0.6-3.5-1.5L5,967.4V963.4L5,963.4z"/>
</g>
</svg>
